<?xml version="1.0" encoding="UTF-8" standalone="no"?>
<svg
   xmlns:osb="http://www.openswatchbook.org/uri/2009/osb"
   xmlns:dc="http://purl.org/dc/elements/1.1/"
   xmlns:cc="http://creativecommons.org/ns#"
   xmlns:rdf="http://www.w3.org/1999/02/22-rdf-syntax-ns#"
   xmlns:svg="http://www.w3.org/2000/svg"
   xmlns="http://www.w3.org/2000/svg"
   id="svg1482"
   version="1.1"
   viewBox="0 0 188.62546 188.63004"
   height="188.63004mm"
   width="188.62546mm">
  <defs
     id="defs1476">
    <linearGradient
       id="LightGrey"
       osb:paint="solid"
       gradientTransform="translate(-298.17224,-77.597158)">
      <stop
         style="stop-color:#e6e6e6;stop-opacity:1;"
         offset="0"
         id="stop3012" />
    </linearGradient>
    <linearGradient
       gradientTransform="matrix(0.16233603,-0.16233603,0.16233603,0.16233603,-521.78649,60.791384)"
       id="DarkBlue"
       osb:paint="solid">
      <stop
         style="stop-color:#4f5088;stop-opacity:1;"
         offset="0"
         id="stop3006" />
    </linearGradient>
  </defs>
  <metadata
     id="metadata1479">
    <rdf:RDF>
      <cc:Work
         rdf:about="">
        <dc:format>image/svg+xml</dc:format>
        <dc:type
           rdf:resource="http://purl.org/dc/dcmitype/StillImage" />
        <dc:title></dc:title>
      </cc:Work>
    </rdf:RDF>
  </metadata>
  <g
     transform="translate(8.890111,7.3804912)"
     id="layer1">
    <path
       d="M 69.810109,-7.3804912 67.36774,9.1879728 A 79.817672,79.817672 0 0 0 62.183179,10.576367 L 51.78406,-2.5534061 24.740359,13.062559 30.91203,28.630081 a 79.817672,79.817672 0 0 0 -3.791561,3.791561 L 11.548329,26.254602 -4.0630209,53.298283 9.064439,63.692773 a 79.817672,79.817672 0 0 0 -1.39071,5.184561 l -16.56384,2.442379 v 31.224997 l 16.56384,2.44006 a 79.817672,79.817672 0 0 0 1.39071,5.1869 l -13.1274599,10.3991 15.6113499,27.04137 15.567531,-6.16934 a 79.817672,79.817672 0 0 0 3.793868,3.79385 L 24.740359,160.80649 51.78406,176.42015 62.183179,163.295 a 79.817672,79.817672 0 0 0 5.184561,1.38608 l 2.442369,16.56846 h 31.225011 l 2.44237,-16.56846 a 79.817672,79.817672 0 0 0 5.18225,-1.38838 l 10.39682,13.12745 27.04138,-15.61366 -6.16473,-15.56753 a 79.817672,79.817672 0 0 0 3.7938,-3.79616 l 15.56528,6.16934 15.61365,-27.04137 -13.12287,-10.3991 a 79.817672,79.817672 0 0 0 1.38609,-5.18458 l 16.56619,-2.43776 V 71.319713 l -16.56619,-2.442379 a 79.817672,79.817672 0 0 0 -1.38838,-5.184561 l 13.12516,-10.39449 -15.60906,-27.043681 -15.56987,6.17166 a 79.817672,79.817672 0 0 0 -3.7938,-3.796181 L 146.09794,13.062559 119.05656,-2.5534061 108.65974,10.574065 a 79.817672,79.817672 0 0 0 -5.18225,-1.3883942 l -2.44237,-16.566162 z"
       style="font-style:normal;font-variant:normal;font-weight:900;font-stretch:normal;font-size:medium;line-height:1.25;font-family:Sarpanch;-inkscape-font-specification:'Sarpanch Heavy';letter-spacing:0px;word-spacing:0px;fill:url(#LightGrey);fill-opacity:1;stroke:none;stroke-width:0.657754"
       id="path6747" />
    <path
       id="rect2539"
       style="fill:url(#DarkBlue);fill-opacity:1;stroke-width:0.5;stroke-linecap:round;stroke-linejoin:round;paint-order:stroke fill markers;stop-color:#000000"
       d="m 110.62041,70.618415 v 31.131745 h 24.99316 v -8.704572 l -1.14451,1.144533 -7.22659,1.09563 v 0.04485 h -13.57229 v -1.442089 h 13.57229 v 1.345997 l 0.60306,-3.977818 H 113.67018 V 89.39667 h 14.4574 l 0.20374,-1.344041 1.2878,-1.287788 h -15.94894 v -1.860063 h 17.809 l 4.13439,-4.134388 V 70.618323 Z m 3.04977,5.302641 h 18.75795 v 1.860063 h -18.75795 z m 26.47511,1.979035 -10.75056,10.750553 -0.79804,5.263373 5.26336,-0.797771 10.75056,-10.750553 z m -26.47511,2.512857 h 18.75795 v 1.860055 h -18.75795 z" />
    <path
       id="path2570"
       style="fill:url(#DarkBlue);fill-opacity:1;stroke-width:0.5;stroke-linecap:round;stroke-linejoin:round;paint-order:stroke fill markers;stop-color:#000000"
       d="M 48.663316,66.971609 A 16.143341,16.143341 0 0 0 32.520524,83.114822 16.143341,16.143341 0 0 0 48.663753,99.258454 16.143341,16.143341 0 0 0 64.806965,83.114822 16.143341,16.143341 0 0 0 48.663753,66.971609 a 16.143341,16.143341 0 0 1 -4.37e-4,0 z m 4.37e-4,3.104358 A 13.038853,13.038853 0 0 1 61.70259,83.114822 13.038853,13.038853 0 0 1 48.663753,96.153676 13.038853,13.038853 0 0 1 35.62489,83.114822 13.038853,13.038853 0 0 1 48.663753,70.075967 Z m -0.0034,2.018237 A 11.020934,11.020934 0 0 0 37.643135,83.114822 11.020934,11.020934 0 0 0 48.664215,94.135885 11.020934,11.020934 0 0 0 59.685269,83.114822 11.020934,11.020934 0 0 0 48.664215,72.094204 a 11.020934,11.020934 0 0 0 -0.0034,0 z m -5.903987,3.982951 6.969757,6.969781 -1.207547,1.207521 -6.969748,-6.969764 z M 44.0076,100.26737 v 5.35519 h 9.313545 v -5.35519 z" />
    <path
       id="path2636"
       style="fill:url(#DarkBlue);fill-opacity:1;stroke-width:0.5;stroke-linecap:round;stroke-linejoin:round;paint-order:stroke fill markers;stop-color:#000000"
       d="m 86.784372,58.836917 c -1.140879,-3.3e-5 -3.838082,0.183373 -4.946488,0.546312 v 17.113042 h 9.892195 V 59.383229 c -1.108145,-0.362855 -3.805088,-0.546261 -4.945707,-0.546312 z m -6.361405,1.114706 c -5.29892,2.537627 -7.436103,9.013687 -7.886012,16.544648 h 7.886012 z m 12.722793,0 v 16.544648 h 7.88527 c -0.44979,-7.5307 -2.586644,-14.00671 -7.88527,-16.544648 z M 75.05591,77.661282 v 2.569243 c -0.327922,-0.169126 -0.689752,-0.264386 -1.072044,-0.264386 -1.47363,0 -2.659918,1.394161 -2.659918,3.125432 v 4.282087 c 0,1.731272 1.186288,3.125466 2.659918,3.125466 0.511117,0 0.985292,-0.171217 1.389759,-0.462491 1.045712,5.197939 4.568195,11.342917 8.778263,11.342917 h 5.341926 c 4.197006,0 7.70983,-6.121736 8.767586,-11.29493 0.389558,0.262253 0.840559,0.414504 1.323479,0.414504 1.473611,0 2.659921,-1.394194 2.659921,-3.125466 v -4.282087 c 0,-1.731271 -1.18631,-3.125432 -2.659921,-3.125432 -0.352323,0 -0.687888,0.08131 -0.995087,0.226285 v -2.531142 z m 2.985268,21.200836 -2.340673,5.178872 -9.073879,3.12088 v 7.43573 h 40.392454 v -7.43573 l -9.073884,-3.12088 -2.340672,-5.178872 c -1.639926,1.443612 -3.598341,4.624932 -5.707646,4.624932 h -6.148054 c -2.109432,0 -4.067653,-3.18116 -5.707646,-4.624932 z" />
  </g>
</svg>
