<?xml version="1.0" encoding="UTF-8" standalone="no"?>
<svg
   xmlns:osb="http://www.openswatchbook.org/uri/2009/osb"
   xmlns:dc="http://purl.org/dc/elements/1.1/"
   xmlns:cc="http://creativecommons.org/ns#"
   xmlns:rdf="http://www.w3.org/1999/02/22-rdf-syntax-ns#"
   xmlns:svg="http://www.w3.org/2000/svg"
   xmlns="http://www.w3.org/2000/svg"
   id="svg1482"
   version="1.1"
   viewBox="0 0 97.698335 26.8704"
   height="26.870399mm"
   width="97.698334mm">
  <defs
     id="defs1476">
    <linearGradient
       id="LightGrey"
       osb:paint="solid"
       gradientTransform="translate(-298.17224,-77.597158)">
      <stop
         style="stop-color:#e6e6e6;stop-opacity:1;"
         offset="0"
         id="stop3012" />
    </linearGradient>
    <linearGradient
       gradientTransform="matrix(0.16233603,-0.16233603,0.16233603,0.16233603,-521.78649,60.791384)"
       id="DarkBlue"
       osb:paint="solid">
      <stop
         style="stop-color:#4f5088;stop-opacity:1;"
         offset="0"
         id="stop3006" />
    </linearGradient>
  </defs>
  <metadata
     id="metadata1479">
    <rdf:RDF>
      <cc:Work
         rdf:about="">
        <dc:format>image/svg+xml</dc:format>
        <dc:type
           rdf:resource="http://purl.org/dc/dcmitype/StillImage" />
        <dc:title></dc:title>
      </cc:Work>
    </rdf:RDF>
  </metadata>
  <g
     transform="translate(-230.27858,-230.1605)"
     id="layer1">
    <path
       id="path6667"
       d="m 241.48957,230.1605 -0.4882,3.31272 -2.0792,-2.62473 -3.85213,2.22407 1.2334,3.11288 -3.1129,-1.23337 -2.22405,3.85206 2.62472,2.07925 -3.31263,0.48843 v 4.44777 l 3.31263,0.48843 -2.62472,2.07926 2.22405,3.85216 3.1129,-1.23348 -1.2334,3.11298 3.85213,2.22398 2.0792,-2.62464 0.4882,3.31263 h 4.44811 l 0.4884,-3.31263 2.07901,2.62464 3.85213,-2.22398 -1.23343,-3.11298 3.11291,1.23348 2.22405,-3.85216 -2.62451,-2.07926 3.31264,-0.48804 v -4.44816 l -3.31264,-0.48843 2.62472,-2.07897 -2.22406,-3.85225 -3.1129,1.23357 1.23341,-3.11317 -3.85232,-2.22407 -2.07901,2.62473 -0.4884,-3.31272 z m -1.23563,6.39775 3.46669,2.00156 3.45528,-1.99493 c 2.59291,1.27697 4.27378,3.87616 4.37478,6.7647 l -4.12778,2.38321 v 4.78936 c -1.13992,0.61453 -2.41424,0.9374 -3.70929,0.93971 -1.25192,0 -2.4851,-0.30424 -3.59648,-0.88055 v -4.84852 l -4.20072,-2.42527 -0.0362,0.0499 c 0.0957,-2.89363 1.77685,-5.49935 4.37377,-6.77901 z m -2.43519,3.30428 2.24709,2.06245 0.91691,0.0605 0.48199,1.07252 v -2.47522 l -1.95581,-0.68281 z m 11.90255,0 -1.69019,0.0375 -1.95581,0.68281 v 2.4752 l 0.48199,-1.07251 0.91691,-0.0605 z m -8.73836,4.60132 1.03892,1.34296 1.1655,0.23884 0.58277,1.13081 0.58274,-1.13081 1.16552,-0.23884 1.0389,-1.34296 -0.90647,0.5234 h -3.76139 z m 2.78719,3.328 -2.20482,1.27304 2.20482,-0.5908 2.20481,0.5908 z"
       style="vector-effect:none;fill:#4f5088;fill-opacity:1;stroke:none;stroke-width:2.43156;stroke-linecap:butt;stroke-linejoin:miter;stroke-miterlimit:4;stroke-dasharray:none;stroke-dashoffset:0;stroke-opacity:1;paint-order:stroke fill markers" />
    <g
       transform="translate(208.23667,221.95224)"
       id="g1110">
      <path
         id="path6665"
         d="m 56.6723,12.75506 v 14.361 h 12.19137 v -1.362 h -6.32641 v -12.999 z m 13.79936,0 v 14.361 h 12.83646 v -1.362 h -6.7413 v -5.3107 h 5.49544 v -1.3619 h -5.49544 v -4.9644 h 6.44143 v -1.362 z m 16.49902,0 c -1.216,0 -1.82337,0.6074 -1.82337,1.8233 v 10.7134 c 0,1.2159 0.60737,1.8243 1.82337,1.8243 h 10.73645 c 1.21596,0 1.82441,-0.6084 1.82441,-1.8243 v -10.7134 c 0,-1.2159 -0.60845,-1.8233 -1.82441,-1.8233 z m 18.77635,0 v 1.362 h 3.90229 v 12.999 h 5.86387 v -12.999 h 3.97088 v -1.362 z m -14.01997,1.362 h 1.22369 c 0.29246,0 0.48517,0.046 0.57749,0.1384 0.0924,0.078 0.13837,0.2696 0.13837,0.5775 v 10.2043 c 0,0.3078 -0.046,0.5084 -0.13837,0.6007 -0.0924,0.078 -0.28503,0.1156 -0.57749,0.1156 h -1.22369 c -0.30786,0 -0.5073,-0.039 -0.5997,-0.1156 -0.0771,-0.092 -0.11616,-0.2929 -0.11616,-0.6007 v -10.2043 c 0,-0.3079 0.039,-0.5005 0.11616,-0.5775 0.0924,-0.092 0.29184,-0.1384 0.5997,-0.1384 z"
         style="font-style:normal;font-variant:normal;font-weight:900;font-stretch:normal;font-size:medium;line-height:1.25;font-family:Sarpanch;-inkscape-font-specification:'Sarpanch Heavy';letter-spacing:0px;word-spacing:0px;fill:#4f5088;fill-opacity:1;stroke:none;stroke-width:0.657751" />
      <g
         aria-label="Engineering Services"
         style="font-style:normal;font-variant:normal;font-weight:bold;font-stretch:normal;font-size:6.48744px;line-height:1;font-family:Play;-inkscape-font-specification:'Play Bold';text-align:start;letter-spacing:0px;word-spacing:0px;text-anchor:start;fill:#4f5088;fill-opacity:1;stroke:none;stroke-width:0.264583"
         id="text4710-2-9"
         transform="translate(-34.38625,-113.23027)">
        <path
           d="m 91.058537,141.98249 h 3.211285 v 0.72011 h -2.199244 v 0.96662 h 1.985159 v 0.72011 h -1.985159 v 1.0834 h 2.264119 v 0.72011 h -3.27616 z"
           style="font-style:normal;font-variant:normal;font-weight:bold;font-stretch:normal;font-size:6.48744px;line-height:1;font-family:Play;-inkscape-font-specification:'Play Bold';text-align:start;text-anchor:start;fill:#4f5088;fill-opacity:1;stroke-width:0.264583"
           id="path7122" />
        <path
           d="m 94.972899,143.05292 h 0.934192 v 0.38276 q 0.110287,-0.44764 1.005554,-0.44764 0.603332,0 0.843368,0.22058 0.246523,0.21408 0.246523,0.68118 v 2.30304 h -0.947167 v -2.17978 q 0,-0.18165 -0.03892,-0.27247 -0.03244,-0.0908 -0.142724,-0.12975 -0.103799,-0.0389 -0.324372,-0.0389 -0.27896,0 -0.408709,0.0389 -0.129749,0.0324 -0.175161,0.12326 -0.04541,0.0908 -0.04541,0.27896 v 2.17978 h -0.947167 z"
           style="font-style:normal;font-variant:normal;font-weight:bold;font-stretch:normal;font-size:6.48744px;line-height:1;font-family:Play;-inkscape-font-specification:'Play Bold';text-align:start;text-anchor:start;fill:#4f5088;fill-opacity:1;stroke-width:0.264583"
           id="path7124" />
        <path
           d="m 100.10903,147.62008 q -0.765519,0 -1.135304,-0.0454 v -0.63577 q 0.60982,0.0843 1.135304,0.0843 0.48007,0 0.68767,-0.1557 0.2076,-0.15569 0.2076,-0.51899 v -0.50602 q -0.11678,0.16867 -0.22706,0.2595 -0.11029,0.0843 -0.29194,0.11677 -0.17516,0.0389 -0.486557,0.0389 -0.460609,0 -0.733082,-0.0843 -0.272472,-0.0908 -0.395734,-0.29194 -0.123261,-0.2076 -0.123261,-0.57089 v -1.22613 q 0,-0.43466 0.110286,-0.66821 0.116774,-0.23354 0.389247,-0.33086 0.27896,-0.0973 0.797951,-0.0973 0.33735,0 0.519,0.0389 0.17516,0.0389 0.26599,0.11677 0.0908,0.0778 0.20759,0.26599 v -0.35681 h 0.91473 v 3.30859 q 0,0.66821 -0.4606,0.96015 -0.45413,0.29842 -1.38183,0.29842 z m 0.22706,-1.95272 q 0.27896,0 0.4152,-0.0389 0.14272,-0.0389 0.19462,-0.12326 0.0584,-0.0908 0.0584,-0.25301 v -1.26505 q 0,-0.17516 -0.0519,-0.2595 -0.0519,-0.0908 -0.20111,-0.12326 -0.14921,-0.0324 -0.4671,-0.0324 -0.2595,0 -0.382759,0.0389 -0.123261,0.0389 -0.168673,0.13623 -0.03893,0.0908 -0.03893,0.27248 v 1.20017 q 0,0.20111 0.03893,0.29194 0.04541,0.0843 0.175161,0.12326 0.129751,0.0324 0.428171,0.0324 z"
           style="font-style:normal;font-variant:normal;font-weight:bold;font-stretch:normal;font-size:6.48744px;line-height:1;font-family:Play;-inkscape-font-specification:'Play Bold';text-align:start;text-anchor:start;fill:#4f5088;fill-opacity:1;stroke-width:0.264583"
           id="path7126" />
        <path
           d="m 102.80406,141.91761 h 0.94716 v 0.76552 h -0.94716 z m 0,1.13531 h 0.94716 v 3.13992 h -0.94716 z"
           style="font-style:normal;font-variant:normal;font-weight:bold;font-stretch:normal;font-size:6.48744px;line-height:1;font-family:Play;-inkscape-font-specification:'Play Bold';text-align:start;text-anchor:start;fill:#4f5088;fill-opacity:1;stroke-width:0.264583"
           id="path7128" />
        <path
           d="m 104.6027,143.05292 h 0.93419 v 0.38276 q 0.11029,-0.44764 1.00556,-0.44764 0.60333,0 0.84336,0.22058 0.24653,0.21408 0.24653,0.68118 v 2.30304 h -0.94717 v -2.17978 q 0,-0.18165 -0.0389,-0.27247 -0.0324,-0.0908 -0.14273,-0.12975 -0.1038,-0.0389 -0.32437,-0.0389 -0.27896,0 -0.40871,0.0389 -0.12975,0.0324 -0.17516,0.12326 -0.0454,0.0908 -0.0454,0.27896 v 2.17978 h -0.94717 z"
           style="font-style:normal;font-variant:normal;font-weight:bold;font-stretch:normal;font-size:6.48744px;line-height:1;font-family:Play;-inkscape-font-specification:'Play Bold';text-align:start;text-anchor:start;fill:#4f5088;fill-opacity:1;stroke-width:0.264583"
           id="path7130" />
        <path
           d="m 110.04374,146.25772 q -1.66727,0 -1.66727,-1.01853 v -1.12882 q 0,-0.59036 0.37627,-0.85634 0.38276,-0.26599 1.17423,-0.26599 0.74605,0 1.08989,0.2595 0.35032,0.25301 0.35032,0.86283 v 0.76552 h -2.03706 v 0.28545 q 0,0.27247 0.19463,0.38924 0.19462,0.11678 0.70064,0.11678 0.4671,0 1.05097,-0.13624 v 0.60333 q -0.57739,0.12327 -1.23262,0.12327 z m 0.42168,-1.92029 v -0.45412 q 0,-0.1557 -0.12974,-0.23355 -0.12327,-0.0778 -0.42169,-0.0778 -0.34383,0 -0.46061,0.0778 -0.12326,0.0843 -0.12326,0.23355 v 0.45412 z"
           style="font-style:normal;font-variant:normal;font-weight:bold;font-stretch:normal;font-size:6.48744px;line-height:1;font-family:Play;-inkscape-font-specification:'Play Bold';text-align:start;text-anchor:start;fill:#4f5088;fill-opacity:1;stroke-width:0.264583"
           id="path7132" />
        <path
           d="m 113.66759,146.25772 q -1.66728,0 -1.66728,-1.01853 v -1.12882 q 0,-0.59036 0.37628,-0.85634 0.38275,-0.26599 1.17422,-0.26599 0.74606,0 1.08989,0.2595 0.35033,0.25301 0.35033,0.86283 v 0.76552 h -2.03706 v 0.28545 q 0,0.27247 0.19462,0.38924 0.19462,0.11678 0.70065,0.11678 0.46709,0 1.05096,-0.13624 v 0.60333 q -0.57738,0.12327 -1.23261,0.12327 z m 0.42168,-1.92029 v -0.45412 q 0,-0.1557 -0.12975,-0.23355 -0.12326,-0.0778 -0.42168,-0.0778 -0.34384,0 -0.46061,0.0778 -0.12326,0.0843 -0.12326,0.23355 v 0.45412 z"
           style="font-style:normal;font-variant:normal;font-weight:bold;font-stretch:normal;font-size:6.48744px;line-height:1;font-family:Play;-inkscape-font-specification:'Play Bold';text-align:start;text-anchor:start;fill:#4f5088;fill-opacity:1;stroke-width:0.264583"
           id="path7134" />
        <path
           d="m 115.71498,143.05292 h 0.90176 v 0.55143 q 0,-0.14921 0.12326,-0.29193 0.12326,-0.14273 0.3114,-0.23355 0.19462,-0.0908 0.38276,-0.0908 h 0.33734 v 0.78498 h -0.32437 q -0.40222,0 -0.59684,0.12327 -0.18814,0.12326 -0.18814,0.4087 v 1.88785 h -0.94717 z"
           style="font-style:normal;font-variant:normal;font-weight:bold;font-stretch:normal;font-size:6.48744px;line-height:1;font-family:Play;-inkscape-font-specification:'Play Bold';text-align:start;text-anchor:start;fill:#4f5088;fill-opacity:1;stroke-width:0.264583"
           id="path7136" />
        <path
           d="m 118.3131,141.91761 h 0.94717 v 0.76552 h -0.94717 z m 0,1.13531 h 0.94717 v 3.13992 h -0.94717 z"
           style="font-style:normal;font-variant:normal;font-weight:bold;font-stretch:normal;font-size:6.48744px;line-height:1;font-family:Play;-inkscape-font-specification:'Play Bold';text-align:start;text-anchor:start;fill:#4f5088;fill-opacity:1;stroke-width:0.264583"
           id="path7138" />
        <path
           d="m 120.11175,143.05292 h 0.93419 v 0.38276 q 0.11029,-0.44764 1.00555,-0.44764 0.60334,0 0.84337,0.22058 0.24652,0.21408 0.24652,0.68118 v 2.30304 h -0.94716 v -2.17978 q 0,-0.18165 -0.0389,-0.27247 -0.0324,-0.0908 -0.14272,-0.12975 -0.1038,-0.0389 -0.32437,-0.0389 -0.27896,0 -0.40871,0.0389 -0.12975,0.0324 -0.17516,0.12326 -0.0454,0.0908 -0.0454,0.27896 v 2.17978 h -0.94716 z"
           style="font-style:normal;font-variant:normal;font-weight:bold;font-stretch:normal;font-size:6.48744px;line-height:1;font-family:Play;-inkscape-font-specification:'Play Bold';text-align:start;text-anchor:start;fill:#4f5088;fill-opacity:1;stroke-width:0.264583"
           id="path7140" />
        <path
           d="m 125.24788,147.62008 q -0.76552,0 -1.13531,-0.0454 v -0.63577 q 0.60982,0.0843 1.13531,0.0843 0.48007,0 0.68767,-0.1557 0.2076,-0.15569 0.2076,-0.51899 v -0.50602 q -0.11678,0.16867 -0.22707,0.2595 -0.11028,0.0843 -0.29193,0.11677 -0.17516,0.0389 -0.48656,0.0389 -0.46061,0 -0.73308,-0.0843 -0.27247,-0.0908 -0.39573,-0.29194 -0.12327,-0.2076 -0.12327,-0.57089 v -1.22613 q 0,-0.43466 0.11029,-0.66821 0.11677,-0.23354 0.38925,-0.33086 0.27896,-0.0973 0.79795,-0.0973 0.33735,0 0.519,0.0389 0.17516,0.0389 0.26598,0.11677 0.0908,0.0778 0.2076,0.26599 v -0.35681 h 0.91473 v 3.30859 q 0,0.66821 -0.46061,0.96015 -0.45412,0.29842 -1.38182,0.29842 z m 0.22706,-1.95272 q 0.27896,0 0.41519,-0.0389 0.14273,-0.0389 0.19463,-0.12326 0.0584,-0.0908 0.0584,-0.25301 v -1.26505 q 0,-0.17516 -0.0519,-0.2595 -0.0519,-0.0908 -0.20112,-0.12326 -0.14921,-0.0324 -0.46709,-0.0324 -0.2595,0 -0.38276,0.0389 -0.12326,0.0389 -0.16867,0.13623 -0.0389,0.0908 -0.0389,0.27248 v 1.20017 q 0,0.20111 0.0389,0.29194 0.0454,0.0843 0.17516,0.12326 0.12975,0.0324 0.42817,0.0324 z"
           style="font-style:normal;font-variant:normal;font-weight:bold;font-stretch:normal;font-size:6.48744px;line-height:1;font-family:Play;-inkscape-font-specification:'Play Bold';text-align:start;text-anchor:start;fill:#4f5088;fill-opacity:1;stroke-width:0.264583"
           id="path7142" />
        <path
           d="m 130.81339,146.25772 q -0.60333,0 -1.49211,-0.11678 v -0.772 q 1.10287,0.16867 1.50509,0.16867 0.84337,0 0.84337,-0.43466 v -0.27247 q 0,-0.2076 -0.12326,-0.31789 -0.11678,-0.11028 -0.42818,-0.11028 h -0.49304 q -1.38831,0 -1.38831,-1.10287 v -0.3114 q 0,-0.55143 0.4606,-0.81093 0.46061,-0.2595 1.45968,-0.2595 0.51899,0 1.31695,0.0843 v 0.75254 q -0.9796,-0.11677 -1.34939,-0.11677 -0.51251,0 -0.68767,0.0843 -0.18813,0.0908 -0.18813,0.28545 v 0.29842 q 0,0.33086 0.55792,0.33086 h 0.50602 q 0.7201,0 1.04448,0.26598 0.32437,0.26599 0.32437,0.81093 v 0.27896 q 0,0.75255 -0.53846,1.01853 -0.2595,0.13624 -0.57738,0.18814 -0.3114,0.0584 -0.75255,0.0584 z"
           style="font-style:normal;font-variant:normal;font-weight:bold;font-stretch:normal;font-size:6.48744px;line-height:1;font-family:Play;-inkscape-font-specification:'Play Bold';text-align:start;text-anchor:start;fill:#4f5088;fill-opacity:1;stroke-width:0.264583"
           id="path7144" />
        <path
           d="m 134.9165,146.25772 q -1.66727,0 -1.66727,-1.01853 v -1.12882 q 0,-0.59036 0.37627,-0.85634 0.38276,-0.26599 1.17423,-0.26599 0.74606,0 1.08989,0.2595 0.35032,0.25301 0.35032,0.86283 v 0.76552 h -2.03706 v 0.28545 q 0,0.27247 0.19463,0.38924 0.19462,0.11678 0.70064,0.11678 0.4671,0 1.05097,-0.13624 v 0.60333 q -0.57738,0.12327 -1.23262,0.12327 z m 0.42169,-1.92029 v -0.45412 q 0,-0.1557 -0.12975,-0.23355 -0.12326,-0.0778 -0.42169,-0.0778 -0.34383,0 -0.4606,0.0778 -0.12327,0.0843 -0.12327,0.23355 v 0.45412 z"
           style="font-style:normal;font-variant:normal;font-weight:bold;font-stretch:normal;font-size:6.48744px;line-height:1;font-family:Play;-inkscape-font-specification:'Play Bold';text-align:start;text-anchor:start;fill:#4f5088;fill-opacity:1;stroke-width:0.264583"
           id="path7146" />
        <path
           d="m 136.9639,143.05292 h 0.90175 v 0.55143 q 0,-0.14921 0.12327,-0.29193 0.12326,-0.14273 0.31139,-0.23355 0.19463,-0.0908 0.38276,-0.0908 h 0.33735 v 0.78498 h -0.32437 q -0.40223,0 -0.59685,0.12327 -0.18813,0.12326 -0.18813,0.4087 v 1.88785 h -0.94717 z"
           style="font-style:normal;font-variant:normal;font-weight:bold;font-stretch:normal;font-size:6.48744px;line-height:1;font-family:Play;-inkscape-font-specification:'Play Bold';text-align:start;text-anchor:start;fill:#4f5088;fill-opacity:1;stroke-width:0.264583"
           id="path7148" />
        <path
           d="m 139.12087,143.05292 h 1.00556 l 0.68767,2.17329 0.66171,-2.17329 h 0.95366 l -1.15477,3.13992 h -0.96014 z"
           style="font-style:normal;font-variant:normal;font-weight:bold;font-stretch:normal;font-size:6.48744px;line-height:1;font-family:Play;-inkscape-font-specification:'Play Bold';text-align:start;text-anchor:start;fill:#4f5088;fill-opacity:1;stroke-width:0.264583"
           id="path7150" />
        <path
           d="m 142.86909,141.91761 h 0.94717 v 0.76552 h -0.94717 z m 0,1.13531 h 0.94717 v 3.13992 h -0.94717 z"
           style="font-style:normal;font-variant:normal;font-weight:bold;font-stretch:normal;font-size:6.48744px;line-height:1;font-family:Play;-inkscape-font-specification:'Play Bold';text-align:start;text-anchor:start;fill:#4f5088;fill-opacity:1;stroke-width:0.264583"
           id="path7152" />
        <path
           d="m 146.19878,146.25772 q -0.24653,0 -0.38925,-0.013 -0.14272,-0.006 -0.35032,-0.0324 -0.2076,-0.0259 -0.34384,-0.0908 -0.12974,-0.0649 -0.27247,-0.19462 -0.26598,-0.22058 -0.26598,-0.75255 v -1.04448 q 0,-0.42817 0.19462,-0.71362 0.0714,-0.10379 0.2076,-0.18813 0.14272,-0.0908 0.28545,-0.14273 0.11677,-0.0389 0.31139,-0.0649 0.19463,-0.0259 0.34384,-0.0324 h 0.34383 q 0.3633,0 0.95366,0.11678 v 0.62279 q -0.66821,-0.1557 -1.02502,-0.1557 -0.65523,0 -0.65523,0.44115 v 1.15476 q 0,0.49954 0.7201,0.49954 0.35033,0 1.00556,-0.14273 v 0.6228 q -0.59036,0.11029 -1.06394,0.11029 z"
           style="font-style:normal;font-variant:normal;font-weight:bold;font-stretch:normal;font-size:6.48744px;line-height:1;font-family:Play;-inkscape-font-specification:'Play Bold';text-align:start;text-anchor:start;fill:#4f5088;fill-opacity:1;stroke-width:0.264583"
           id="path7154" />
        <path
           d="m 149.37387,146.25772 q -1.66727,0 -1.66727,-1.01853 v -1.12882 q 0,-0.59036 0.37627,-0.85634 0.38276,-0.26599 1.17423,-0.26599 0.74606,0 1.08989,0.2595 0.35032,0.25301 0.35032,0.86283 v 0.76552 h -2.03705 v 0.28545 q 0,0.27247 0.19462,0.38924 0.19462,0.11678 0.70064,0.11678 0.4671,0 1.05097,-0.13624 v 0.60333 q -0.57738,0.12327 -1.23262,0.12327 z m 0.42169,-1.92029 v -0.45412 q 0,-0.1557 -0.12975,-0.23355 -0.12326,-0.0778 -0.42168,-0.0778 -0.34384,0 -0.46061,0.0778 -0.12326,0.0843 -0.12326,0.23355 v 0.45412 z"
           style="font-style:normal;font-variant:normal;font-weight:bold;font-stretch:normal;font-size:6.48744px;line-height:1;font-family:Play;-inkscape-font-specification:'Play Bold';text-align:start;text-anchor:start;fill:#4f5088;fill-opacity:1;stroke-width:0.264583"
           id="path7156" />
        <path
           d="m 152.5955,146.25772 q -0.50602,0 -1.2391,-0.0973 v -0.62928 q 0.90175,0.13624 1.25207,0.13624 0.29842,0 0.44115,-0.0584 0.14272,-0.0584 0.14272,-0.21409 v -0.19462 q 0,-0.16218 -0.0908,-0.22706 -0.0908,-0.0714 -0.35681,-0.0714 H 152.336 q -0.49953,0 -0.77201,-0.19462 -0.27247,-0.20112 -0.27247,-0.58387 v -0.38276 q 0,-0.40871 0.38925,-0.57739 0.38924,-0.17516 1.17422,-0.17516 0.3114,0 1.11585,0.0584 v 0.60333 q -1.01205,-0.0778 -1.14179,-0.0778 -0.38276,0 -0.49954,0.0519 -0.1038,0.0584 -0.1038,0.21409 v 0.16867 q 0,0.0843 0.0843,0.14921 0.0843,0.0584 0.24652,0.0584 h 0.4152 q 1.15476,0 1.15476,0.75254 v 0.39574 q 0,0.22706 -0.0843,0.39573 -0.0843,0.16868 -0.22058,0.26599 -0.12974,0.0908 -0.33734,0.14272 -0.20111,0.0519 -0.42169,0.0714 -0.20111,0.0195 -0.46709,0.0195 z"
           style="font-style:normal;font-variant:normal;font-weight:bold;font-stretch:normal;font-size:6.48744px;line-height:1;font-family:Play;-inkscape-font-specification:'Play Bold';text-align:start;text-anchor:start;fill:#4f5088;fill-opacity:1;stroke-width:0.264583"
           id="path7158" />
      </g>
    </g>
  </g>
</svg>
